# xmcd CD database file
#
# Track frame offsets:
#	150
#	14785
#	27810
#	38717
#	52362
#	63071
#	74687
#	88607
#	102043
#	113576
#	125277
#	138303
#	164913
#	177156
#	187690
#	200943
#	213689
#	228963
#	242684
#	256578
#	269262
#	293726
#	305596
#	316087
#	328716
#	339783
#
# Disc length: 4700 seconds
#
# Revision: 0
# Processed by: cddbd v1.4PL0 Copyright (c) Steve Scherf et al.
# Submitted via: CDex 1.50
#
DISCID=78125a1a
DTITLE=Django Reinhardt - Django Reinhardt And His American Friends 3
DYEAR=2000
DGENRE=Jazz
TTITLE0=My Melancoholy Baby
TTITLE1=I Got Rythm
TTITLE2=Monmartre
TTITLE3=Low Cotton
TTITLE4=Finesse
TTITLE5=I Know What You Know
TTITLE6=Solid Old Man
TTITLE7=The Sheik
TTITLE8=Darktown Strutter's Bail
TTITLE9=Blues Of Yesterdays
TTITLE10=My Melancholy Baby
TTITLE11=Braggin' The Briggs
TTITLE12=Sometimes I'm Happy
TTITLE13=Scatterbrain
TTITLE14=Jumpin' At The Woodside
TTITLE15=Week-End Stomp
TTITLE16=Nerves And Fever
TTITLE17=Fast, Slow, Medium Tempo
TTITLE18=Panassie Stomp
TTITLE19=Rock-A-Bie Basie
TTITLE20=Boogie Woogie
TTITLE21=Blue Skies
TTITLE22=Stomp
TTITLE23=Tears
TTITLE24=Limehouse Blues
TTITLE25=Daphne
EXTD=YEAR: 2000
EXTT0=
EXTT1=
EXTT2=
EXTT3=
EXTT4=
EXTT5=
EXTT6=
EXTT7=
EXTT8=
EXTT9=
EXTT10=
EXTT11=
EXTT12=
EXTT13=
EXTT14=
EXTT15=
EXTT16=
EXTT17=
EXTT18=
EXTT19=
EXTT20=
EXTT21=
EXTT22=
EXTT23=
EXTT24=
EXTT25=
PLAYORDER=
